<mxfile host="app.diagrams.net" modified="2024-04-17T15:40:04.888Z" agent="Mozilla/5.0 (Windows NT 10.0; Win64; x64) AppleWebKit/537.36 (KHTML, like Gecko) Chrome/123.0.0.0 Safari/537.36 Edg/123.0.0.0" version="24.2.5" etag="a4Rb5euZ2z3O8AsLjh3Q" type="github">
  <diagram name="Page-1" id="VRWG1vZy8mbLd3X8vj_K">
    <mxGraphModel>
      <root>
        <mxCell id="0" />
        <mxCell id="1" parent="0" />
      </root>
    </mxGraphModel>
  </diagram>
</mxfile>
